<svg xmlns="http://www.w3.org/2000/svg" width="64" height="28" viewBox="0 0 64 28" fill="none">
<g clip-path="url(#clip0_17_747)">
<path d="M0.847412 21.5332H13.5315V17.9772H5.38341V1.51318H0.847412V21.5332Z" fill="white"/>
<path d="M21.8698 18.7612C19.5738 18.7612 18.2858 17.0812 18.2858 14.2812V14.0572C18.2858 11.2572 19.6298 9.63322 21.8698 9.63322C24.1378 9.63322 25.4538 11.3132 25.4538 14.1132V14.3092C25.4538 17.0812 24.1378 18.7612 21.8698 18.7612ZM21.8418 21.8412C26.2378 21.8412 29.5698 18.9012 29.5698 14.2812V14.0572C29.5698 9.49322 26.2658 6.55322 21.8698 6.55322C17.4738 6.55322 14.1418 9.54922 14.1418 14.1412V14.3652C14.1418 18.9292 17.4738 21.8412 21.8418 21.8412Z" fill="white"/>
<path d="M37.9479 26.9372C42.7639 26.9372 45.6479 24.7252 45.6759 20.3852V6.88922H41.6439V9.07322C40.8039 7.58922 39.3759 6.55322 36.9959 6.55322C33.3559 6.55322 30.5559 9.49322 30.5559 13.6932V13.8892C30.5559 18.2292 33.3839 20.8892 36.9399 20.8892C39.0959 20.8892 40.8319 19.6012 41.6439 18.1732V20.3852C41.6439 22.6812 40.4119 23.9692 37.9479 23.9692C35.8759 23.9692 34.9519 23.1292 34.6999 21.8412H30.6679C31.0599 24.8652 33.2159 26.9372 37.9479 26.9372ZM38.1439 17.8372C36.1279 17.8372 34.6999 16.3252 34.6999 13.8892V13.6652C34.6999 11.2572 35.9599 9.63322 38.2279 9.63322C40.4399 9.63322 41.7559 11.1452 41.7559 13.6372V13.8332C41.7559 16.3252 40.2719 17.8372 38.1439 17.8372Z" fill="white"/>
<path d="M55.2446 18.7612C52.9486 18.7612 51.6606 17.0812 51.6606 14.2812V14.0572C51.6606 11.2572 53.0046 9.63322 55.2446 9.63322C57.5126 9.63322 58.8286 11.3132 58.8286 14.1132V14.3092C58.8286 17.0812 57.5126 18.7612 55.2446 18.7612ZM55.2166 21.8412C59.6126 21.8412 62.9446 18.9012 62.9446 14.2812V14.0572C62.9446 9.49322 59.6406 6.55322 55.2446 6.55322C50.8486 6.55322 47.5166 9.54922 47.5166 14.1412V14.3652C47.5166 18.9292 50.8486 21.8412 55.2166 21.8412Z" fill="white"/>
</g>
<defs>
<clipPath id="clip0_17_747">
<rect width="63" height="27" fill="white" transform="translate(0.282959 0.533203)"/>
</clipPath>
</defs>
</svg>
